<svg width="612" height="525" version="1.1" xmlns="http://www.w3.org/2000/svg"><path fill="rgb(16,139,253)" stroke="rgb(16,139,253)" stroke-width="1" opacity="1" d="M 269.5 7 L 368 7.5 L 321.5 74 L 323 71.5 Q 323.8 69.3 321.5 70 L 310.5 77 L 309.5 74 L 309 76 L 298 80.5 L 298.5 82 L 292.5 84 L 290 83 L 288.5 86 L 286 85.5 L 288 84.5 L 285.5 84 L 281.5 87 L 278.5 87 L 275.5 90 L 252.5 96 L 250.5 96 L 234.5 100 L 228.5 100 L 223.5 102 L 221.5 101 L 211.5 104 L 205.5 104 L 180.5 109 L 179 108.5 Q 179.9 111.5 175.5 110 L 159.5 114 Q 158 111.5 156.5 115 Q 150.5 115 147.5 118 L 142.5 118 L 139.5 120 L 83.5 138 L 38.5 149 L 40 146.5 Q 51.1 129.1 66.5 116 Q 94.6 90.6 136.5 79 L 164.5 74 L 176.5 74 L 177.5 73 L 223.5 73 L 226 70.5 L 269.5 7 Z "></path><path fill="rgb(16,139,253)" stroke="rgb(16,139,253)" stroke-width="1" opacity="1" d="M 440.5 74 L 447 74.5 L 440.5 75 L 440.5 74 Z "></path><path fill="rgb(16,139,253)" stroke="rgb(16,139,253)" stroke-width="1" opacity="1" d="M 320.5 75 L 319.5 77 L 320.5 75 Z "></path><path fill="rgb(16,139,253)" stroke="rgb(16,139,253)" stroke-width="1" opacity="1" d="M 453.5 75 L 458 75.5 L 453.5 76 L 453.5 75 Z "></path><path fill="rgb(16,139,253)" stroke="rgb(16,139,253)" stroke-width="1" opacity="1" d="M 368.5 76 L 367.5 78 L 368.5 76 Z "></path><path fill="rgb(16,139,253)" stroke="rgb(16,139,253)" stroke-width="1" opacity="1" d="M 462.5 76 L 465 76.5 L 462.5 77 L 462.5 76 Z "></path><path fill="rgb(16,139,253)" stroke="rgb(16,139,253)" stroke-width="1" opacity="1" d="M 469.5 77 L 472 77.5 L 469.5 78 L 469.5 77 Z "></path><path fill="rgb(16,139,253)" stroke="rgb(16,139,253)" stroke-width="1" opacity="1" d="M 318.5 78 L 317.5 80 L 318.5 78 Z "></path><path fill="rgb(16,139,253)" stroke="rgb(16,139,253)" stroke-width="1" opacity="1" d="M 366.5 79 L 365.5 81 L 366.5 79 Z "></path><path fill="rgb(16,139,253)" stroke="rgb(16,139,253)" stroke-width="1" opacity="1" d="M 316.5 81 L 315.5 83 L 316.5 81 Z "></path><path fill="rgb(16,139,253)" stroke="rgb(16,139,253)" stroke-width="1" opacity="1" d="M 364.5 82 L 363.5 84 L 364.5 82 Z "></path><path fill="rgb(16,139,253)" stroke="rgb(16,139,253)" stroke-width="1" opacity="1" d="M 314.5 84 L 313 86.5 L 310.5 90 L 312 87.5 L 314.5 84 Z "></path><path fill="rgb(16,139,253)" stroke="rgb(16,139,253)" stroke-width="1" opacity="1" d="M 361.5 86 L 360.5 88 L 361.5 86 Z "></path><path fill="rgb(16,139,253)" stroke="rgb(16,139,253)" stroke-width="1" opacity="1" d="M 359.5 89 L 358.5 91 L 359.5 89 Z "></path><path fill="rgb(16,139,253)" stroke="rgb(16,139,253)" stroke-width="1" opacity="1" d="M 309.5 91 L 308.5 93 L 309.5 91 Z "></path><path fill="rgb(16,139,253)" stroke="rgb(16,139,253)" stroke-width="1" opacity="1" d="M 357.5 92 L 356.5 94 L 357.5 92 Z "></path><path fill="rgb(16,139,253)" stroke="rgb(16,139,253)" stroke-width="1" opacity="1" d="M 307.5 94 L 306.5 96 L 307.5 94 Z "></path><path fill="rgb(16,139,253)" stroke="rgb(16,139,253)" stroke-width="1" opacity="1" d="M 354.5 96 L 353.5 98 L 354.5 96 Z "></path><path fill="rgb(16,139,253)" stroke="rgb(16,139,253)" stroke-width="1" opacity="1" d="M 305.5 97 L 304.5 99 L 305.5 97 Z "></path><path fill="rgb(16,139,253)" stroke="rgb(16,139,253)" stroke-width="1" opacity="1" d="M 352.5 99 L 351.5 101 L 352.5 99 Z "></path><path fill="rgb(16,139,253)" stroke="rgb(16,139,253)" stroke-width="1" opacity="1" d="M 303.5 100 L 302.5 102 L 303.5 100 Z "></path><path fill="rgb(16,139,253)" stroke="rgb(16,139,253)" stroke-width="1" opacity="1" d="M 301.5 103 L 300.5 105 L 301.5 103 Z "></path><path fill="rgb(16,139,253)" stroke="rgb(16,139,253)" stroke-width="1" opacity="1" d="M 349.5 103 L 348.5 105 L 349.5 103 Z "></path><path fill="rgb(16,139,253)" stroke="rgb(16,139,253)" stroke-width="1" opacity="1" d="M 347.5 106 L 346.5 108 L 347.5 106 Z "></path><path fill="rgb(16,139,253)" stroke="rgb(16,139,253)" stroke-width="1" opacity="1" d="M 298.5 107 L 297.5 109 L 298.5 107 Z "></path><path fill="rgb(16,139,253)" stroke="rgb(16,139,253)" stroke-width="1" opacity="1" d="M 345.5 109 L 344.5 111 L 345.5 109 Z "></path><path fill="rgb(16,139,253)" stroke="rgb(16,139,253)" stroke-width="1" opacity="1" d="M 296.5 110 L 295.5 112 L 296.5 110 Z "></path><path fill="rgb(16,139,253)" stroke="rgb(16,139,253)" stroke-width="1" opacity="1" d="M 294.5 113 L 293.5 115 L 294.5 113 Z "></path><path fill="rgb(16,139,253)" stroke="rgb(16,139,253)" stroke-width="1" opacity="1" d="M 342.5 113 L 341.5 115 L 342.5 113 Z "></path><path fill="rgb(16,139,253)" stroke="rgb(16,139,253)" stroke-width="1" opacity="1" d="M 292.5 116 L 291.5 118 L 292.5 116 Z "></path><path fill="rgb(16,139,253)" stroke="rgb(16,139,253)" stroke-width="1" opacity="1" d="M 340.5 116 L 339.5 118 L 340.5 116 Z "></path><path fill="rgb(16,139,253)" stroke="rgb(16,139,253)" stroke-width="1" opacity="1" d="M 290.5 119 L 289.5 121 L 290.5 119 Z "></path><path fill="rgb(16,139,253)" stroke="rgb(16,139,253)" stroke-width="1" opacity="1" d="M 287.5 123 L 286.5 125 L 287.5 123 Z "></path><path fill="rgb(16,139,253)" stroke="rgb(16,139,253)" stroke-width="1" opacity="1" d="M 335.5 123 L 334.5 125 L 335.5 123 Z "></path><path fill="rgb(16,139,253)" stroke="rgb(16,139,253)" stroke-width="1" opacity="1" d="M 285.5 126 L 284.5 128 L 285.5 126 Z "></path><path fill="rgb(16,139,253)" stroke="rgb(16,139,253)" stroke-width="1" opacity="1" d="M 333.5 126 L 332.5 128 L 333.5 126 Z "></path><path fill="rgb(16,139,253)" stroke="rgb(16,139,253)" stroke-width="1" opacity="1" d="M 283.5 129 L 282.5 131 L 283.5 129 Z "></path><path fill="rgb(16,139,253)" stroke="rgb(16,139,253)" stroke-width="1" opacity="1" d="M 281.5 132 L 280.5 134 L 281.5 132 Z "></path><path fill="rgb(16,139,253)" stroke="rgb(16,139,253)" stroke-width="1" opacity="1" d="M 328.5 133 L 327.5 135 L 328.5 133 Z "></path><path fill="rgb(16,139,253)" stroke="rgb(16,139,253)" stroke-width="1" opacity="1" d="M 279.5 135 L 278.5 137 L 279.5 135 Z "></path><path fill="rgb(16,139,253)" stroke="rgb(16,139,253)" stroke-width="1" opacity="1" d="M 326.5 136 L 325.5 138 L 326.5 136 Z "></path><path fill="rgb(16,139,253)" stroke="rgb(16,139,253)" stroke-width="1" opacity="1" d="M 323.5 140 L 322.5 142 L 323.5 140 Z "></path><path fill="rgb(16,139,253)" stroke="rgb(16,139,253)" stroke-width="1" opacity="1" d="M 274.5 142 L 273.5 144 L 274.5 142 Z "></path><path fill="rgb(16,139,253)" stroke="rgb(16,139,253)" stroke-width="1" opacity="1" d="M 321.5 143 L 320.5 145 L 321.5 143 Z "></path><path fill="rgb(16,139,253)" stroke="rgb(16,139,253)" stroke-width="1" opacity="1" d="M 272.5 145 L 271.5 147 L 272.5 145 Z "></path><path fill="rgb(16,139,253)" stroke="rgb(16,139,253)" stroke-width="1" opacity="1" d="M 270.5 148 L 269.5 150 L 270.5 148 Z "></path><path fill="rgb(16,139,253)" stroke="rgb(16,139,253)" stroke-width="1" opacity="1" d="M 37.5 150 L 36.5 152 L 37.5 150 Z "></path><path fill="rgb(16,139,253)" stroke="rgb(16,139,253)" stroke-width="1" opacity="1" d="M 316.5 150 L 315.5 152 L 316.5 150 Z "></path><path fill="rgb(16,139,253)" stroke="rgb(16,139,253)" stroke-width="1" opacity="1" d="M 35.5 153 L 34.5 155 L 35.5 153 Z "></path><path fill="rgb(16,139,253)" stroke="rgb(16,139,253)" stroke-width="1" opacity="1" d="M 314.5 153 L 313.5 155 L 314.5 153 Z "></path><path fill="rgb(16,139,253)" stroke="rgb(16,139,253)" stroke-width="1" opacity="1" d="M 174.5 154 L 181 154.5 L 174.5 155 L 174.5 154 Z "></path><path fill="rgb(16,139,253)" stroke="rgb(16,139,253)" stroke-width="1" opacity="1" d="M 167.5 155 L 170 155.5 L 167.5 156 L 167.5 155 Z "></path><path fill="rgb(16,139,253)" stroke="rgb(16,139,253)" stroke-width="1" opacity="1" d="M 33.5 156 L 33 157.5 L 31.5 160 L 32 158.5 L 33.5 156 Z "></path><path fill="rgb(16,139,253)" stroke="rgb(16,139,253)" stroke-width="1" opacity="1" d="M 157.5 157 L 160 157.5 L 157.5 158 L 157.5 157 Z "></path><path fill="rgb(16,139,253)" stroke="rgb(16,139,253)" stroke-width="1" opacity="1" d="M 309.5 160 L 308.5 162 L 309.5 160 Z "></path><path fill="rgb(16,139,253)" stroke="rgb(16,139,253)" stroke-width="1" opacity="1" d="M 29.5 163 L 29 164.5 L 23.5 176 L 23 174.5 L 29.5 163 Z "></path><path fill="rgb(16,139,253)" stroke="rgb(16,139,253)" stroke-width="1" opacity="1" d="M 133.5 167 L 132.5 169 L 133.5 167 Z "></path><path fill="rgb(16,139,253)" stroke="rgb(16,139,253)" stroke-width="1" opacity="1" d="M 304.5 167 L 303.5 169 L 304.5 167 Z "></path><path fill="rgb(16,139,253)" stroke="rgb(16,139,253)" stroke-width="1" opacity="1" d="M 124.5 173 L 122.5 176 L 124.5 173 Z "></path><path fill="rgb(16,139,253)" stroke="rgb(16,139,253)" stroke-width="1" opacity="1" d="M 119.5 177 L 111.5 186 L 119.5 177 Z "></path><path fill="rgb(16,139,253)" stroke="rgb(16,139,253)" stroke-width="1" opacity="1" d="M 297.5 177 L 296.5 179 L 297.5 177 Z "></path><path fill="rgb(16,139,253)" stroke="rgb(16,139,253)" stroke-width="1" opacity="1" d="M 290.5 187 L 289.5 189 L 290.5 187 Z "></path><path fill="rgb(16,139,253)" stroke="rgb(16,139,253)" stroke-width="1" opacity="1" d="M 109.5 188 L 107.5 191 L 109.5 188 Z "></path><path fill="rgb(16,139,253)" stroke="rgb(16,139,253)" stroke-width="1" opacity="1" d="M 285.5 194 L 284.5 196 L 285.5 194 Z "></path><path fill="rgb(16,139,253)" stroke="rgb(16,139,253)" stroke-width="1" opacity="1" d="M 283.5 197 L 282.5 199 L 283.5 197 Z "></path><path fill="rgb(16,139,253)" stroke="rgb(16,139,253)" stroke-width="1" opacity="1" d="M 278.5 204 L 277.5 206 L 278.5 204 Z "></path><path fill="rgb(16,139,253)" stroke="rgb(16,139,253)" stroke-width="1" opacity="1" d="M 10.5 214 L 11 216.5 L 10 216.5 L 10.5 214 Z "></path><path fill="rgb(16,139,253)" stroke="rgb(16,139,253)" stroke-width="1" opacity="1" d="M 271.5 214 L 270.5 216 L 271.5 214 Z "></path><path fill="rgb(16,139,253)" stroke="rgb(16,139,253)" stroke-width="1" opacity="1" d="M 9.5 220 L 10 222.5 L 9 222.5 L 9.5 220 Z "></path><path fill="rgb(16,139,253)" stroke="rgb(16,139,253)" stroke-width="1" opacity="1" d="M 266.5 221 L 265.5 223 L 266.5 221 Z "></path><path fill="rgb(16,139,253)" stroke="rgb(16,139,253)" stroke-width="1" opacity="1" d="M 264.5 224 L 263.5 226 L 264.5 224 Z "></path><path fill="rgb(16,139,253)" stroke="rgb(16,139,253)" stroke-width="1" opacity="1" d="M 8.5 227 L 9 231.5 L 8 231.5 L 8.5 227 Z "></path><path fill="rgb(16,139,253)" stroke="rgb(16,139,253)" stroke-width="1" opacity="1" d="M 89.5 231 L 90 233.5 L 89 233.5 L 89.5 231 Z "></path><path fill="rgb(16,139,253)" stroke="rgb(16,139,253)" stroke-width="1" opacity="1" d="M 259.5 231 L 258.5 233 L 259.5 231 Z "></path><path fill="rgb(16,139,253)" stroke="rgb(16,139,253)" stroke-width="1" opacity="1" d="M 88.5 237 L 89 243.5 L 88 243.5 L 88.5 237 Z "></path><path fill="rgb(16,139,253)" stroke="rgb(16,139,253)" stroke-width="1" opacity="1" d="M 7.5 240 L 8 252.5 L 7 252.5 L 7.5 240 Z "></path><path fill="rgb(16,139,253)" stroke="rgb(16,139,253)" stroke-width="1" opacity="1" d="M 252.5 241 L 251.5 243 L 252.5 241 Z "></path><path fill="rgb(16,139,253)" stroke="rgb(16,139,253)" stroke-width="1" opacity="1" d="M 88.5 249 L 89 254.5 L 88 254.5 L 88.5 249 Z "></path><path fill="rgb(16,139,253)" stroke="rgb(16,139,253)" stroke-width="1" opacity="1" d="M 245.5 251 L 244.5 253 L 245.5 251 Z "></path><path fill="rgb(16,139,253)" stroke="rgb(16,139,253)" stroke-width="1" opacity="1" d="M 240.5 258 L 239.5 260 L 240.5 258 Z "></path><path fill="rgb(16,139,253)" stroke="rgb(16,139,253)" stroke-width="1" opacity="1" d="M 8.5 261 L 9 264.5 L 8 264.5 L 8.5 261 Z "></path><path fill="rgb(16,139,253)" stroke="rgb(16,139,253)" stroke-width="1" opacity="1" d="M 233.5 268 L 232.5 270 L 233.5 268 Z "></path><path fill="rgb(16,139,253)" stroke="rgb(16,139,253)" stroke-width="1" opacity="1" d="M 9.5 269 L 10 271.5 L 9 271.5 L 9.5 269 Z "></path><path fill="rgb(16,139,253)" stroke="rgb(16,139,253)" stroke-width="1" opacity="1" d="M 10.5 275 L 11 277.5 L 10 277.5 L 10.5 275 Z "></path><path fill="rgb(16,139,253)" stroke="rgb(16,139,253)" stroke-width="1" opacity="1" d="M 226.5 278 L 225.5 280 L 226.5 278 Z "></path><path fill="rgb(16,139,253)" stroke="rgb(16,139,253)" stroke-width="1" opacity="1" d="M 98.5 282 L 99.5 284 L 98.5 282 Z "></path><path fill="rgb(16,139,253)" stroke="rgb(16,139,253)" stroke-width="1" opacity="1" d="M 221.5 285 L 220.5 287 L 221.5 285 Z "></path><path fill="rgb(16,139,253)" stroke="rgb(16,139,253)" stroke-width="1" opacity="1" d="M 101.5 286 L 109.5 295 L 101.5 286 Z "></path><path fill="rgb(16,139,253)" stroke="rgb(16,139,253)" stroke-width="1" opacity="1" d="M 112.5 296 L 113.5 298 L 112.5 296 Z "></path><path fill="rgb(16,139,253)" stroke="rgb(16,139,253)" stroke-width="1" opacity="1" d="M 118.5 300 L 119.5 302 L 118.5 300 Z "></path><path fill="rgb(16,139,253)" stroke="rgb(16,139,253)" stroke-width="1" opacity="1" d="M 155.5 313 L 158 313.5 L 155.5 314 L 155.5 313 Z "></path><path fill="rgb(16,139,253)" stroke="rgb(16,139,253)" stroke-width="1" opacity="1" d="M 174.5 315 L 179 315.5 L 174.5 316 L 174.5 315 Z "></path><path fill="rgb(16,139,253)" stroke="rgb(16,139,253)" stroke-width="1" opacity="1" d="M 27.5 321 L 28.5 323 L 27.5 321 Z "></path><path fill="rgb(16,139,253)" stroke="rgb(16,139,253)" stroke-width="1" opacity="1" d="M 33.5 330 L 34.5 332 L 33.5 330 Z "></path><path fill="rgb(16,139,253)" stroke="rgb(16,139,253)" stroke-width="1" opacity="1" d="M 36.5 334 L 37.5 336 L 36.5 334 Z "></path><path fill="rgb(16,139,253)" stroke="rgb(16,139,253)" stroke-width="1" opacity="1" d="M 40.5 339 L 41.5 341 L 40.5 339 Z "></path><path fill="rgb(10,108,247)" stroke="rgb(10,108,247)" stroke-width="1" opacity="1" d="M 321.5 70 Q 323.8 69.3 323 71.5 L 278 138 L 275 139.5 L 275.5 141 Q 274 137.5 272.5 140 Q 269.9 139.3 271 142 L 267.5 142 Q 263 146.5 254.5 147 L 253 146.5 Q 253.9 149.5 249.5 148 L 246.5 149 L 239.5 151 L 234.5 151 L 227.5 154 L 174.5 154 L 157.5 157 Q 128.4 165.4 111 185.5 L 109.5 188 L 107.5 187 L 107 189 L 64.5 201 L 40.5 204 L 39.5 205 L 13.5 207 L 12.5 208 L 13 206.5 Q 20.8 171.8 39.5 148 L 49.5 147 L 52.5 145 L 83.5 138 L 139.5 120 L 142.5 118 L 147.5 118 Q 150.5 115 156.5 115 L 158.5 113 L 160.5 114 L 179 110 L 179.5 108 L 182.5 109 L 193.5 106 L 199.5 106 L 217 102.5 L 216.5 101 L 220.5 102 L 222.5 101 L 224.5 101 L 239 98.5 L 238.5 97 L 243.5 98 L 251.5 95 L 253.5 96 L 257.5 94 L 275.5 90 L 278.5 87 L 281.5 87 L 287.5 84 L 287.5 85 L 286 85.5 L 288.5 86 L 290 83 L 293.5 84 L 299 81.5 L 298.5 80 L 309 76 L 309.5 74 L 312.5 76 L 321.5 70 Z "></path><path fill="rgb(10,108,247)" stroke="rgb(10,108,247)" stroke-width="1" opacity="1" d="M 370.5 74 L 385 74.5 L 376 80.5 Q 376.9 83.5 372.5 82 L 372.5 84 L 358.5 93 L 358 91.5 L 370.5 74 Z "></path><path fill="rgb(12,75,227)" stroke="rgb(12,75,227)" stroke-width="1" opacity="1" d="M 385.5 74 L 438.5 74 L 439 76 L 433.5 77 L 424.5 84 L 423 83.5 L 421.5 86 L 397.5 101 L 368.5 124 L 367 123.5 Q 368.1 126.8 365.5 126 Q 364.4 128.8 361 128 Q 362.1 130.7 359.5 130 L 356 132.5 L 349.5 141 L 345 144.5 L 343.5 147 L 340 149.5 L 337.5 153 L 335 154.5 L 333.5 158 L 329 161.5 Q 331.3 162.8 328.5 164 L 323 168.5 L 321.5 171 Q 319.3 170.3 320 172.5 L 310.5 184 L 307 186.5 L 303.5 192 L 276 210 Q 277.1 212.7 274.5 212 L 272 213.5 L 357.5 93 L 373 83.5 L 372.5 82 Q 376.9 83.5 376 80.5 L 385.5 74 Z "></path><path fill="rgb(12,75,227)" stroke="rgb(12,75,227)" stroke-width="1" opacity="1" d="M 276.5 138 L 275 140.5 L 265.5 154 L 228 153.5 L 247.5 148 L 249.5 148 Q 253.9 149.5 253 146.5 L 254.5 147 Q 263 146.5 267.5 142 L 271 142 Q 269.9 139.3 272.5 140 L 276.5 138 Z "></path><path fill="rgb(12,75,227)" stroke="rgb(12,75,227)" stroke-width="1" opacity="1" d="M 107.5 187 Q 111.2 189.2 106 191.5 Q 96 204.5 91 222.5 L 88 237.5 L 88 254.5 L 92 268.5 L 83.5 270 L 66.5 270 L 58.5 272 L 39.5 272 L 38.5 271 L 26.5 270 L 23.5 268 L 21.5 268 L 9 268 L 9 261.5 L 8 260.5 L 8 232.5 L 9 231.5 L 11 212.5 L 13.5 207 L 39.5 205 L 40.5 204 L 64.5 201 L 107 189 L 107.5 187 Z "></path><path fill="rgb(52,51,195)" stroke="rgb(52,51,195)" stroke-width="1" opacity="1" d="M 498.5 84 L 512.5 89 L 529 97.5 L 524.5 100 L 488.5 107 L 460.5 115 L 435.5 125 Q 409.6 138.1 392 159.5 L 377 180.5 L 376 185 Q 373.3 183.9 374 186.5 L 361 210.5 Q 352.7 218.8 348 230 Q 345.3 228.9 346 231.5 L 335 246 L 333 246 Q 334.1 248.7 331.5 248 L 321.5 259 L 318.5 261 L 308.5 271 L 277.5 293 L 261.5 302 L 237.5 313 L 232.5 314 L 230.5 316 L 225.5 317 L 210.5 324 L 207.5 324 L 205.5 326 L 202.5 326 L 178.5 335 L 168.5 337 L 156.5 342 L 149.5 343 L 119.5 353 L 112.5 354 L 103.5 358 L 88.5 361 L 84.5 363 L 69.5 365 L 46 345.5 L 47.5 346 L 68.5 345 L 93.5 340 L 96.5 338 L 98.5 338 L 150.5 324 L 153.5 322 L 157.5 322 L 173.5 316 L 201 316 L 208 304 L 252.5 285 L 284.5 265 L 300 252.5 Q 299.3 250.3 301.5 251 L 311 244 L 318.5 234 Q 320.8 234.8 320 232.5 L 330 221.5 L 337 211.5 L 337 209 L 340 207.5 Q 352.3 182.8 368 161.5 L 367.5 160 L 370 158.5 L 383.5 140 Q 385.8 140.8 385 138.5 L 390 135 L 390 133 L 392 133 Q 390.9 130.3 393.5 131 L 411.5 117 L 432.5 106 L 444.5 101 L 462.5 96 L 467.5 93 L 476.5 92 L 482.5 89 L 498 86 L 498.5 84 Z "></path><path fill="rgb(0,0,0)" stroke="rgb(0,0,0)" stroke-width="1" opacity="0" d="M 0 0 L 612 0 L 612 525 L 0 525 L 0 0 Z M 270 7 L 226 71 L 224 73 L 178 73 L 177 74 L 165 74 L 137 79 Q 95 91 67 116 Q 39 140 23 175 L 12 206 L 8 228 L 8 240 L 7 241 L 7 253 L 8 254 L 9 272 L 16 299 Q 25 322 40 340 Q 69 374 118 388 L 139 393 L 160 395 L 161 396 L 175 396 L 176 397 L 242 397 L 413 155 L 443 155 L 444 156 L 452 156 L 468 159 Q 487 164 501 174 L 515 190 L 522 206 L 524 217 L 524 232 L 521 248 Q 516 265 506 277 Q 485 303 447 313 L 437 315 L 430 315 L 429 316 L 347 316 L 206 520 L 304 520 L 388 397 L 435 397 L 436 396 L 445 396 L 446 395 L 458 394 L 475 390 Q 517 377 547 351 Q 569 331 585 304 L 598 274 L 603 253 L 604 238 L 605 237 L 605 212 L 604 211 L 604 203 L 598 177 Q 589 150 573 132 Q 544 96 494 82 L 472 77 L 459 76 L 458 75 L 448 75 L 447 74 L 371 74 L 200 316 L 166 315 L 165 314 L 148 312 L 127 305 L 112 296 Q 100 288 94 275 L 89 259 L 89 250 L 88 249 Q 90 209 110 188 Q 129 164 165 156 L 181 155 L 182 154 L 267 154 L 368 8 L 270 7 Z "></path><path fill="rgb(145,49,157)" stroke="rgb(145,49,157)" stroke-width="1" opacity="1" d="M 540.5 103 L 541.5 105 L 540.5 103 Z "></path><path fill="rgb(145,49,157)" stroke="rgb(145,49,157)" stroke-width="1" opacity="1" d="M 543.5 105 L 544.5 107 L 543.5 105 Z "></path><path fill="rgb(145,49,157)" stroke="rgb(145,49,157)" stroke-width="1" opacity="1" d="M 547.5 108 L 548.5 110 L 547.5 108 Z "></path><path fill="rgb(145,49,157)" stroke="rgb(145,49,157)" stroke-width="1" opacity="1" d="M 550.5 110 L 573 131.5 L 579 139.5 L 576.5 138 L 575.5 139 L 565.5 141 L 560.5 144 L 553.5 145 L 551.5 147 L 526.5 154 L 493 168.5 L 493.5 170 L 477.5 162 L 457.5 157 L 443.5 156 L 442.5 155 L 412.5 155 L 411 155.5 L 412.5 154 L 427.5 154 L 450.5 140 L 474.5 131 L 500.5 124 L 504.5 124 L 508.5 122 L 518.5 121 L 552 112.5 L 550.5 110 Z "></path><path fill="rgb(145,49,157)" stroke="rgb(145,49,157)" stroke-width="1" opacity="1" d="M 579.5 141 L 580.5 143 L 579.5 141 Z "></path><path fill="rgb(145,49,157)" stroke="rgb(145,49,157)" stroke-width="1" opacity="1" d="M 583.5 147 L 584.5 149 L 583.5 147 Z "></path><path fill="rgb(145,49,157)" stroke="rgb(145,49,157)" stroke-width="1" opacity="1" d="M 586.5 152 L 587.5 154 L 586.5 152 Z "></path><path fill="rgb(145,49,157)" stroke="rgb(145,49,157)" stroke-width="1" opacity="1" d="M 409.5 158 L 408.5 160 L 409.5 158 Z "></path><path fill="rgb(145,49,157)" stroke="rgb(145,49,157)" stroke-width="1" opacity="1" d="M 407.5 161 L 406.5 163 L 407.5 161 Z "></path><path fill="rgb(145,49,157)" stroke="rgb(145,49,157)" stroke-width="1" opacity="1" d="M 402.5 168 L 401.5 170 L 402.5 168 Z "></path><path fill="rgb(145,49,157)" stroke="rgb(145,49,157)" stroke-width="1" opacity="1" d="M 495.5 170 L 500 173.5 L 497.5 172 L 495.5 170 Z "></path><path fill="rgb(145,49,157)" stroke="rgb(145,49,157)" stroke-width="1" opacity="1" d="M 400.5 171 L 399.5 173 L 400.5 171 Z "></path><path fill="rgb(145,49,157)" stroke="rgb(145,49,157)" stroke-width="1" opacity="1" d="M 501.5 174 L 511.5 185 L 501.5 174 Z "></path><path fill="rgb(145,49,157)" stroke="rgb(145,49,157)" stroke-width="1" opacity="1" d="M 395.5 178 L 394.5 180 L 395.5 178 Z "></path><path fill="rgb(145,49,157)" stroke="rgb(145,49,157)" stroke-width="1" opacity="1" d="M 393.5 181 L 392.5 183 L 393.5 181 Z "></path><path fill="rgb(145,49,157)" stroke="rgb(145,49,157)" stroke-width="1" opacity="1" d="M 390.5 185 L 389.5 187 L 390.5 185 Z "></path><path fill="rgb(145,49,157)" stroke="rgb(145,49,157)" stroke-width="1" opacity="1" d="M 388.5 188 L 387.5 190 L 388.5 188 Z "></path><path fill="rgb(145,49,157)" stroke="rgb(145,49,157)" stroke-width="1" opacity="1" d="M 383.5 195 L 382.5 197 L 383.5 195 Z "></path><path fill="rgb(145,49,157)" stroke="rgb(145,49,157)" stroke-width="1" opacity="1" d="M 602.5 196 L 603 198.5 L 602 198.5 L 602.5 196 Z "></path><path fill="rgb(145,49,157)" stroke="rgb(145,49,157)" stroke-width="1" opacity="1" d="M 381.5 198 L 380.5 200 L 381.5 198 Z "></path><path fill="rgb(145,49,157)" stroke="rgb(145,49,157)" stroke-width="1" opacity="1" d="M 603.5 202 L 604 205.5 L 603 205.5 L 603.5 202 Z "></path><path fill="rgb(145,49,157)" stroke="rgb(145,49,157)" stroke-width="1" opacity="1" d="M 376.5 205 L 375.5 207 L 376.5 205 Z "></path><path fill="rgb(145,49,157)" stroke="rgb(145,49,157)" stroke-width="1" opacity="1" d="M 522.5 207 L 523 209.5 L 522 209.5 L 522.5 207 Z "></path><path fill="rgb(145,49,157)" stroke="rgb(145,49,157)" stroke-width="1" opacity="1" d="M 374.5 208 L 373.5 210 L 374.5 208 Z "></path><path fill="rgb(145,49,157)" stroke="rgb(145,49,157)" stroke-width="1" opacity="1" d="M 604.5 211 L 605 220.5 L 604 220.5 L 604.5 211 Z "></path><path fill="rgb(145,49,157)" stroke="rgb(145,49,157)" stroke-width="1" opacity="1" d="M 523.5 213 L 524 215.5 L 523 215.5 L 523.5 213 Z "></path><path fill="rgb(145,49,157)" stroke="rgb(145,49,157)" stroke-width="1" opacity="1" d="M 369.5 215 L 368.5 217 L 369.5 215 Z "></path><path fill="rgb(145,49,157)" stroke="rgb(145,49,157)" stroke-width="1" opacity="1" d="M 362.5 225 L 361.5 227 L 362.5 225 Z "></path><path fill="rgb(145,49,157)" stroke="rgb(145,49,157)" stroke-width="1" opacity="1" d="M 604.5 227 L 605 236.5 L 604 236.5 L 604.5 227 Z "></path><path fill="rgb(145,49,157)" stroke="rgb(145,49,157)" stroke-width="1" opacity="1" d="M 523.5 232 L 524 235.5 L 523 235.5 L 523.5 232 Z "></path><path fill="rgb(145,49,157)" stroke="rgb(145,49,157)" stroke-width="1" opacity="1" d="M 355.5 235 L 354.5 237 L 355.5 235 Z "></path><path fill="rgb(145,49,157)" stroke="rgb(145,49,157)" stroke-width="1" opacity="1" d="M 350.5 242 L 349.5 244 L 350.5 242 Z "></path><path fill="rgb(145,49,157)" stroke="rgb(145,49,157)" stroke-width="1" opacity="1" d="M 603.5 243 L 604 245.5 L 603 245.5 L 603.5 243 Z "></path><path fill="rgb(145,49,157)" stroke="rgb(145,49,157)" stroke-width="1" opacity="1" d="M 348.5 245 L 347.5 247 L 348.5 245 Z "></path><path fill="rgb(145,49,157)" stroke="rgb(145,49,157)" stroke-width="1" opacity="1" d="M 602.5 250 L 603 252.5 L 602 252.5 L 602.5 250 Z "></path><path fill="rgb(145,49,157)" stroke="rgb(145,49,157)" stroke-width="1" opacity="1" d="M 343.5 252 L 342.5 254 L 343.5 252 Z "></path><path fill="rgb(145,49,157)" stroke="rgb(145,49,157)" stroke-width="1" opacity="1" d="M 341.5 255 L 340.5 257 L 341.5 255 Z "></path><path fill="rgb(145,49,157)" stroke="rgb(145,49,157)" stroke-width="1" opacity="1" d="M 336.5 262 L 335.5 264 L 336.5 262 Z "></path><path fill="rgb(145,49,157)" stroke="rgb(145,49,157)" stroke-width="1" opacity="1" d="M 334.5 265 L 333.5 267 L 334.5 265 Z "></path><path fill="rgb(145,49,157)" stroke="rgb(145,49,157)" stroke-width="1" opacity="1" d="M 331.5 269 L 330.5 271 L 331.5 269 Z "></path><path fill="rgb(145,49,157)" stroke="rgb(145,49,157)" stroke-width="1" opacity="1" d="M 329.5 272 L 328.5 274 L 329.5 272 Z "></path><path fill="rgb(145,49,157)" stroke="rgb(145,49,157)" stroke-width="1" opacity="1" d="M 507.5 274 L 506.5 276 L 507.5 274 Z "></path><path fill="rgb(145,49,157)" stroke="rgb(145,49,157)" stroke-width="1" opacity="1" d="M 326.5 276 L 325.5 278 L 326.5 276 Z "></path><path fill="rgb(145,49,157)" stroke="rgb(145,49,157)" stroke-width="1" opacity="1" d="M 324.5 279 L 323.5 281 L 324.5 279 Z "></path><path fill="rgb(145,49,157)" stroke="rgb(145,49,157)" stroke-width="1" opacity="1" d="M 503.5 279 L 494.5 289 L 503.5 279 Z "></path><path fill="rgb(145,49,157)" stroke="rgb(145,49,157)" stroke-width="1" opacity="1" d="M 322.5 282 L 320.5 285 L 322.5 282 Z "></path><path fill="rgb(145,49,157)" stroke="rgb(145,49,157)" stroke-width="1" opacity="1" d="M 319.5 286 L 318 288.5 L 275.5 349 L 274 349.5 Q 276.3 350.8 273.5 352 L 273.5 350 L 249.5 360 L 204.5 375 L 190.5 381 L 187.5 381 L 155 393.5 L 155.5 395 L 133.5 392 L 117.5 388 L 98 381 Q 96.8 378 100.5 379 Q 115 372.5 132.5 369 L 135.5 367 L 152.5 363 L 154.5 361 L 182.5 353 L 206.5 344 L 209.5 344 L 252.5 327 Q 290.2 310.7 319.5 286 Z "></path><path fill="rgb(145,49,157)" stroke="rgb(145,49,157)" stroke-width="1" opacity="1" d="M 490.5 291 L 489.5 293 L 490.5 291 Z "></path><path fill="rgb(145,49,157)" stroke="rgb(145,49,157)" stroke-width="1" opacity="1" d="M 480.5 298 L 479.5 300 L 480.5 298 Z "></path><path fill="rgb(145,49,157)" stroke="rgb(145,49,157)" stroke-width="1" opacity="1" d="M 584.5 303 L 583.5 305 L 584.5 303 Z "></path><path fill="rgb(145,49,157)" stroke="rgb(145,49,157)" stroke-width="1" opacity="1" d="M 429.5 315 L 433 315.5 L 429.5 316 L 429.5 315 Z "></path><path fill="rgb(145,49,157)" stroke="rgb(145,49,157)" stroke-width="1" opacity="1" d="M 346.5 316 L 421 316.5 L 346.5 317 L 346.5 316 Z "></path><path fill="rgb(145,49,157)" stroke="rgb(145,49,157)" stroke-width="1" opacity="1" d="M 344.5 318 L 343.5 320 L 344.5 318 Z "></path><path fill="rgb(145,49,157)" stroke="rgb(145,49,157)" stroke-width="1" opacity="1" d="M 571.5 323 L 570.5 325 L 571.5 323 Z "></path><path fill="rgb(145,49,157)" stroke="rgb(145,49,157)" stroke-width="1" opacity="1" d="M 340.5 324 L 339.5 326 L 340.5 324 Z "></path><path fill="rgb(145,49,157)" stroke="rgb(145,49,157)" stroke-width="1" opacity="1" d="M 567.5 328 L 566.5 330 L 567.5 328 Z "></path><path fill="rgb(145,49,157)" stroke="rgb(145,49,157)" stroke-width="1" opacity="1" d="M 333.5 334 L 332.5 336 L 333.5 334 Z "></path><path fill="rgb(145,49,157)" stroke="rgb(145,49,157)" stroke-width="1" opacity="1" d="M 562.5 334 L 558.5 339 L 562.5 334 Z "></path><path fill="rgb(145,49,157)" stroke="rgb(145,49,157)" stroke-width="1" opacity="1" d="M 331.5 337 L 330.5 339 L 331.5 337 Z "></path><path fill="rgb(145,49,157)" stroke="rgb(145,49,157)" stroke-width="1" opacity="1" d="M 329.5 340 L 328.5 342 L 329.5 340 Z "></path><path fill="rgb(145,49,157)" stroke="rgb(145,49,157)" stroke-width="1" opacity="1" d="M 550.5 346 L 546.5 351 L 550.5 346 Z "></path><path fill="rgb(145,49,157)" stroke="rgb(145,49,157)" stroke-width="1" opacity="1" d="M 322.5 350 L 321.5 352 L 322.5 350 Z "></path><path fill="rgb(145,49,157)" stroke="rgb(145,49,157)" stroke-width="1" opacity="1" d="M 54.5 353 L 55.5 355 L 54.5 353 Z "></path><path fill="rgb(145,49,157)" stroke="rgb(145,49,157)" stroke-width="1" opacity="1" d="M 272.5 353 L 271 355.5 L 268.5 359 L 270 356.5 L 272.5 353 Z "></path><path fill="rgb(145,49,157)" stroke="rgb(145,49,157)" stroke-width="1" opacity="1" d="M 320.5 353 L 319.5 355 L 320.5 353 Z "></path><path fill="rgb(145,49,157)" stroke="rgb(145,49,157)" stroke-width="1" opacity="1" d="M 541.5 354 L 540.5 356 L 541.5 354 Z "></path><path fill="rgb(145,49,157)" stroke="rgb(145,49,157)" stroke-width="1" opacity="1" d="M 318.5 356 L 317.5 358 L 318.5 356 Z "></path><path fill="rgb(145,49,157)" stroke="rgb(145,49,157)" stroke-width="1" opacity="1" d="M 267.5 360 L 266.5 362 L 267.5 360 Z "></path><path fill="rgb(145,49,157)" stroke="rgb(145,49,157)" stroke-width="1" opacity="1" d="M 265.5 363 L 264.5 365 L 265.5 363 Z "></path><path fill="rgb(145,49,157)" stroke="rgb(145,49,157)" stroke-width="1" opacity="1" d="M 311.5 366 L 310.5 368 L 311.5 366 Z "></path><path fill="rgb(145,49,157)" stroke="rgb(145,49,157)" stroke-width="1" opacity="1" d="M 309.5 369 L 308.5 371 L 309.5 369 Z "></path><path fill="rgb(145,49,157)" stroke="rgb(145,49,157)" stroke-width="1" opacity="1" d="M 260.5 370 L 259.5 372 L 260.5 370 Z "></path><path fill="rgb(145,49,157)" stroke="rgb(145,49,157)" stroke-width="1" opacity="1" d="M 258.5 373 L 257.5 375 L 258.5 373 Z "></path><path fill="rgb(145,49,157)" stroke="rgb(145,49,157)" stroke-width="1" opacity="1" d="M 253.5 380 L 252.5 382 L 253.5 380 Z "></path><path fill="rgb(145,49,157)" stroke="rgb(145,49,157)" stroke-width="1" opacity="1" d="M 300.5 382 L 299.5 384 L 300.5 382 Z "></path><path fill="rgb(145,49,157)" stroke="rgb(145,49,157)" stroke-width="1" opacity="1" d="M 251.5 383 L 250.5 385 L 251.5 383 Z "></path><path fill="rgb(145,49,157)" stroke="rgb(145,49,157)" stroke-width="1" opacity="1" d="M 248.5 387 L 247.5 389 L 248.5 387 Z "></path><path fill="rgb(145,49,157)" stroke="rgb(145,49,157)" stroke-width="1" opacity="1" d="M 246.5 390 L 245.5 392 L 246.5 390 Z "></path><path fill="rgb(145,49,157)" stroke="rgb(145,49,157)" stroke-width="1" opacity="1" d="M 244.5 393 L 243.5 395 L 244.5 393 Z "></path><path fill="rgb(145,49,157)" stroke="rgb(145,49,157)" stroke-width="1" opacity="1" d="M 455.5 393 L 458 393.5 L 455.5 394 L 455.5 393 Z "></path><path fill="rgb(145,49,157)" stroke="rgb(145,49,157)" stroke-width="1" opacity="1" d="M 449.5 394 L 452 394.5 L 449.5 395 L 449.5 394 Z "></path><path fill="rgb(145,49,157)" stroke="rgb(145,49,157)" stroke-width="1" opacity="1" d="M 160.5 395 L 167 395.5 L 160.5 396 L 160.5 395 Z "></path><path fill="rgb(145,49,157)" stroke="rgb(145,49,157)" stroke-width="1" opacity="1" d="M 441.5 395 L 445 395.5 L 441.5 396 L 441.5 395 Z "></path><path fill="rgb(145,49,157)" stroke="rgb(145,49,157)" stroke-width="1" opacity="1" d="M 175.5 396 L 242 396.5 L 175.5 397 L 175.5 396 Z "></path><path fill="rgb(145,49,157)" stroke="rgb(145,49,157)" stroke-width="1" opacity="1" d="M 426.5 396 L 435 396.5 L 426.5 397 L 426.5 396 Z "></path><path fill="rgb(145,49,157)" stroke="rgb(145,49,157)" stroke-width="1" opacity="1" d="M 289.5 398 L 288.5 400 L 289.5 398 Z "></path><path fill="rgb(145,49,157)" stroke="rgb(145,49,157)" stroke-width="1" opacity="1" d="M 385.5 401 L 384.5 403 L 385.5 401 Z "></path><path fill="rgb(145,49,157)" stroke="rgb(145,49,157)" stroke-width="1" opacity="1" d="M 278.5 414 L 277.5 416 L 278.5 414 Z "></path><path fill="rgb(145,49,157)" stroke="rgb(145,49,157)" stroke-width="1" opacity="1" d="M 376.5 414 L 375.5 416 L 376.5 414 Z "></path><path fill="rgb(145,49,157)" stroke="rgb(145,49,157)" stroke-width="1" opacity="1" d="M 374.5 417 L 373.5 419 L 374.5 417 Z "></path><path fill="rgb(145,49,157)" stroke="rgb(145,49,157)" stroke-width="1" opacity="1" d="M 269.5 427 L 268.5 429 L 269.5 427 Z "></path><path fill="rgb(145,49,157)" stroke="rgb(145,49,157)" stroke-width="1" opacity="1" d="M 267.5 430 L 266.5 432 L 267.5 430 Z "></path><path fill="rgb(145,49,157)" stroke="rgb(145,49,157)" stroke-width="1" opacity="1" d="M 365.5 430 L 364.5 432 L 365.5 430 Z "></path><path fill="rgb(145,49,157)" stroke="rgb(145,49,157)" stroke-width="1" opacity="1" d="M 363.5 433 L 362.5 435 L 363.5 433 Z "></path><path fill="rgb(145,49,157)" stroke="rgb(145,49,157)" stroke-width="1" opacity="1" d="M 258.5 443 L 257.5 445 L 258.5 443 Z "></path><path fill="rgb(145,49,157)" stroke="rgb(145,49,157)" stroke-width="1" opacity="1" d="M 256.5 446 L 255.5 448 L 256.5 446 Z "></path><path fill="rgb(145,49,157)" stroke="rgb(145,49,157)" stroke-width="1" opacity="1" d="M 354.5 446 L 353.5 448 L 354.5 446 Z "></path><path fill="rgb(145,49,157)" stroke="rgb(145,49,157)" stroke-width="1" opacity="1" d="M 352.5 449 L 351.5 451 L 352.5 449 Z "></path><path fill="rgb(145,49,157)" stroke="rgb(145,49,157)" stroke-width="1" opacity="1" d="M 247.5 459 L 246.5 461 L 247.5 459 Z "></path><path fill="rgb(145,49,157)" stroke="rgb(145,49,157)" stroke-width="1" opacity="1" d="M 245.5 462 L 244.5 464 L 245.5 462 Z "></path><path fill="rgb(145,49,157)" stroke="rgb(145,49,157)" stroke-width="1" opacity="1" d="M 343.5 462 L 342.5 464 L 343.5 462 Z "></path><path fill="rgb(145,49,157)" stroke="rgb(145,49,157)" stroke-width="1" opacity="1" d="M 341.5 465 L 340.5 467 L 341.5 465 Z "></path><path fill="rgb(145,49,157)" stroke="rgb(145,49,157)" stroke-width="1" opacity="1" d="M 236.5 475 L 235.5 477 L 236.5 475 Z "></path><path fill="rgb(145,49,157)" stroke="rgb(145,49,157)" stroke-width="1" opacity="1" d="M 234.5 478 L 233.5 480 L 234.5 478 Z "></path><path fill="rgb(145,49,157)" stroke="rgb(145,49,157)" stroke-width="1" opacity="1" d="M 332.5 478 L 331.5 480 L 332.5 478 Z "></path><path fill="rgb(145,49,157)" stroke="rgb(145,49,157)" stroke-width="1" opacity="1" d="M 330.5 481 L 329.5 483 L 330.5 481 Z "></path><path fill="rgb(145,49,157)" stroke="rgb(145,49,157)" stroke-width="1" opacity="1" d="M 225.5 491 L 224.5 493 L 225.5 491 Z "></path><path fill="rgb(145,49,157)" stroke="rgb(145,49,157)" stroke-width="1" opacity="1" d="M 223.5 494 L 222.5 496 L 223.5 494 Z "></path><path fill="rgb(145,49,157)" stroke="rgb(145,49,157)" stroke-width="1" opacity="1" d="M 321.5 494 L 320.5 496 L 321.5 494 Z "></path><path fill="rgb(145,49,157)" stroke="rgb(145,49,157)" stroke-width="1" opacity="1" d="M 319.5 497 L 318.5 499 L 319.5 497 Z "></path><path fill="rgb(145,49,157)" stroke="rgb(145,49,157)" stroke-width="1" opacity="1" d="M 214.5 507 L 213.5 509 L 214.5 507 Z "></path><path fill="rgb(145,49,157)" stroke="rgb(145,49,157)" stroke-width="1" opacity="1" d="M 212.5 510 L 211.5 512 L 212.5 510 Z "></path><path fill="rgb(145,49,157)" stroke="rgb(145,49,157)" stroke-width="1" opacity="1" d="M 310.5 510 L 309.5 512 L 310.5 510 Z "></path><path fill="rgb(145,49,157)" stroke="rgb(145,49,157)" stroke-width="1" opacity="1" d="M 308.5 513 L 307.5 515 L 308.5 513 Z "></path><path fill="rgb(145,49,157)" stroke="rgb(145,49,157)" stroke-width="1" opacity="1" d="M 206.5 519 L 304 519.5 L 206.5 520 L 206.5 519 Z "></path><path fill="rgb(20,57,210)" stroke="rgb(20,57,210)" stroke-width="1" opacity="1" d="M 439.5 75 L 452.5 75 L 453.5 76 L 467.5 77 L 498 84 Q 499.3 87.3 494.5 86 L 482.5 89 L 476.5 92 L 467.5 93 L 462.5 96 L 459.5 96 L 432.5 106 L 411.5 117 L 392 131 L 392 133 L 390 133 Q 391.1 135.7 388.5 135 L 385 140 L 381 142.5 L 368.5 160 L 367 160.5 Q 369.5 162 366 163.5 L 338.5 209 Q 335.9 208.2 337 211.5 L 320 234 L 317 235.5 L 311 244 L 300 251 L 298.5 254 L 284.5 265 L 252.5 285 L 209.5 304 L 211 301.5 L 270 216.5 L 274.5 212 L 277.5 210 L 301 193.5 L 300.5 192 L 302.5 192 L 305 190.5 L 306 188.5 L 305.5 187 L 307 187.5 L 309.5 184 L 312 182.5 L 311.5 181 Q 312.8 183.3 314 180.5 L 320 171 L 323 169.5 L 327.5 164 L 330 162.5 L 329 161.5 L 332.5 158 L 335 156.5 L 336.5 153 L 340 150.5 L 342.5 147 L 345 145.5 L 348.5 141 L 351 139.5 L 357.5 131 L 361 130 Q 359.8 127 363.5 128 L 367 126 L 367.5 123 L 368.5 124 L 374.5 118 L 407.5 94 L 423 84.5 L 423.5 83 L 425.5 83 L 433.5 77 L 439.5 75 Z "></path><path fill="rgb(20,57,210)" stroke="rgb(20,57,210)" stroke-width="1" opacity="1" d="M 9.5 268 L 21.5 268 L 22.5 269 L 24.5 268 L 26.5 270 L 38.5 271 L 39.5 272 L 58.5 272 L 66.5 270 L 83.5 270 L 84.5 269 L 92 269 Q 96.8 287.3 111.5 297 Q 124.1 306.4 141.5 311 L 154.5 314 L 169.5 315 L 173 316.5 L 143.5 326 L 132.5 328 L 129.5 330 L 125.5 330 L 118.5 333 L 107.5 335 L 97.5 339 L 95.5 338 L 93.5 340 L 74.5 344 L 61.5 345 L 60.5 346 L 47.5 346 Q 30.3 329.7 20 306.5 L 12 283.5 L 9.5 268 Z "></path><path fill="rgb(84,48,183)" stroke="rgb(84,48,183)" stroke-width="1" opacity="1" d="M 529.5 97 L 552 112.5 L 518.5 121 L 508.5 122 L 504.5 124 L 500.5 124 L 474.5 131 L 450.5 140 L 427.5 154 L 412.5 154 L 411 155.5 L 317.5 288 Q 288.8 311.3 252.5 327 L 209.5 344 L 206.5 344 L 182.5 353 L 154.5 361 L 152.5 363 L 135.5 367 L 132.5 369 Q 113.4 372.9 97.5 380 L 70 365.5 L 103.5 358 L 112.5 354 L 119.5 353 L 149.5 343 L 156.5 342 L 168.5 337 L 178.5 335 L 187.5 331 L 205.5 326 L 207.5 324 L 210.5 324 L 225.5 317 L 230.5 316 L 232.5 314 L 237.5 313 L 261.5 302 L 277.5 293 L 295.5 281 L 320 261 Q 318.9 258.3 321.5 259 L 331.5 248 L 333 248 L 333 246 Q 335.7 247.1 335 244.5 L 346 230 Q 348.7 231.1 348 228.5 L 367 200.5 L 374 185 Q 376.7 186.1 376 183.5 Q 389 159 409.5 142 L 418.5 135 L 444.5 121 L 488.5 107 L 524.5 100 L 529.5 97 Z "></path><path fill="rgb(84,48,183)" stroke="rgb(84,48,183)" stroke-width="1" opacity="1" d="M 171.5 315 L 174 315.5 L 171.5 316 L 171.5 315 Z "></path><path fill="rgb(84,48,183)" stroke="rgb(84,48,183)" stroke-width="1" opacity="1" d="M 43.5 342 L 45.5 345 L 43.5 342 Z "></path><path fill="rgb(84,48,183)" stroke="rgb(84,48,183)" stroke-width="1" opacity="1" d="M 51.5 350 L 53.5 353 L 51.5 350 Z "></path><path fill="rgb(230,12,37)" stroke="rgb(230,12,37)" stroke-width="1" opacity="1" d="M 588.5 160 Q 591.8 158.9 591 161.5 L 595 169.5 L 601 188.5 L 603 205.5 L 604 206.5 L 605 226.5 L 604 227.5 L 604 242.5 L 603 243.5 L 601 260.5 L 591 290.5 Q 576 323 551.5 346 L 543 352.5 Q 543.8 354.8 541.5 354 Q 513.3 378.3 472.5 390 L 439.5 396 L 388.5 397 L 385 400.5 L 372 421 L 360.5 424 L 360.5 423 L 365 420.5 L 362.5 420 L 315.5 433 L 309.5 433 L 304.5 436 Q 298.5 436 295.5 439 L 291.5 439 L 278.5 444 L 268.5 450 L 265 450 L 264 452.5 L 267 453.5 L 259.5 458 L 259 456 L 256.5 455 L 247.5 461 L 249 458.5 L 297.5 388 L 305.5 382 L 324 373 L 327.5 368 L 346 355.5 L 348.5 352 L 362 341.5 Q 361.3 339.3 363.5 340 L 366.5 336 L 368 336.5 Q 367.3 334.3 369.5 335 L 374 329 Q 381.8 326.4 387 319.5 L 388.5 317 L 420.5 317 L 421.5 316 L 432.5 316 L 451.5 312 Q 484.4 302.4 504 279.5 Q 516.4 265.9 522 245.5 L 524 235.5 L 524 213.5 L 520 198.5 L 516 190.5 L 505 176 L 514.5 173 L 527.5 172 L 531.5 170 L 538.5 169 L 542.5 169 L 556.5 167 L 565.5 164 L 567.5 165 L 571.5 163 L 579.5 163 L 588.5 160 Z "></path><path fill="rgb(205,17,51)" stroke="rgb(205,17,51)" stroke-width="1" opacity="1" d="M 576.5 138 Q 585.5 147.1 590 160 L 579.5 163 L 571.5 163 L 566.5 165 L 564.5 165 L 551.5 168 L 544.5 168 L 541.5 170 L 538.5 169 L 531.5 170 L 527.5 172 L 514.5 173 L 504.5 177 L 493 168.5 L 515.5 158 L 576.5 138 Z "></path><path fill="rgb(205,17,51)" stroke="rgb(205,17,51)" stroke-width="1" opacity="1" d="M 345 317 L 388 317.5 L 384.5 322 L 374 329 L 369.5 335 Q 367.3 334.3 368 336.5 L 366 336.5 L 363.5 340 Q 361.3 339.3 362 341.5 L 346 354.5 L 342.5 359 L 324 371.5 Q 324.8 373.8 322.5 373 Q 315.7 379.2 305.5 382 L 296.5 389 L 298 386.5 L 345 317 Z "></path><path fill="rgb(205,17,51)" stroke="rgb(205,17,51)" stroke-width="1" opacity="1" d="M 274.5 349 L 273 351.5 L 243 396 L 167.5 396 L 166.5 395 L 156.5 395 L 155 393.5 L 187.5 381 L 190.5 381 L 204.5 375 L 249.5 360 L 274.5 349 Z "></path><path fill="rgb(205,17,51)" stroke="rgb(205,17,51)" stroke-width="1" opacity="1" d="M 544.5 351 L 543.5 353 L 544.5 351 Z "></path><path fill="rgb(205,17,51)" stroke="rgb(205,17,51)" stroke-width="1" opacity="1" d="M 538.5 356 L 537.5 358 L 538.5 356 Z "></path><path fill="rgb(205,17,51)" stroke="rgb(205,17,51)" stroke-width="1" opacity="1" d="M 534.5 359 L 533.5 361 L 534.5 359 Z "></path><path fill="rgb(205,17,51)" stroke="rgb(205,17,51)" stroke-width="1" opacity="1" d="M 386.5 399 L 385.5 401 L 386.5 399 Z "></path><path fill="rgb(205,17,51)" stroke="rgb(205,17,51)" stroke-width="1" opacity="1" d="M 288.5 400 L 287.5 402 L 288.5 400 Z "></path><path fill="rgb(205,17,51)" stroke="rgb(205,17,51)" stroke-width="1" opacity="1" d="M 277.5 416 L 276.5 418 L 277.5 416 Z "></path><path fill="rgb(205,17,51)" stroke="rgb(205,17,51)" stroke-width="1" opacity="1" d="M 362.5 420 L 365 420.5 L 360 423.5 L 362.5 424 L 370.5 421 L 371 422.5 L 305 519 L 207 518.5 L 246 461 L 249 459.5 L 248.5 458 L 250.5 459 L 256.5 455 L 259 456 L 259.5 458 L 267 453.5 L 264 452.5 L 265 450 L 268.5 450 L 278.5 444 L 291.5 439 L 295.5 439 Q 298.5 436 304.5 436 L 309.5 433 L 315.5 433 L 362.5 420 Z "></path><path fill="rgb(205,17,51)" stroke="rgb(205,17,51)" stroke-width="1" opacity="1" d="M 266.5 432 L 265.5 434 L 266.5 432 Z "></path></svg>